<!DOCTYPE svg PUBLIC "-//W3C//DTD SVG 1.1//EN" "http://www.w3.org/Graphics/SVG/1.1/DTD/svg11.dtd">
<!-- Uploaded to: SVG Repo, www.svgrepo.com, Transformed by: SVG Repo Mixer Tools -->
<svg fill="#ffffff" version="1.1" id="Capa_1" xmlns="http://www.w3.org/2000/svg" xmlns:xlink="http://www.w3.org/1999/xlink" width="129px" height="129px" viewBox="-16.84 -16.84 595.05 595.05" xml:space="preserve" stroke="#ffffff" stroke-width="22.454920000000005">
<g id="SVGRepo_bgCarrier" stroke-width="0"/>
<g id="SVGRepo_tracerCarrier" stroke-linecap="round" stroke-linejoin="round" stroke="#f50000" stroke-width="1.122746"/>
<g id="SVGRepo_iconCarrier"> <g> <g> <path d="M250.607,261.41c-14.569,12.552-31.436,22.495-49.896,29.073V408.26c-9.125-3.654-19.073-5.686-29.501-5.686 c-43.85,0-79.397,35.547-79.397,79.396s35.548,79.398,79.397,79.398c43.85,0,79.398-35.549,79.398-79.398c0-0.021,0-0.043,0-0.064 l0,0V261.41z"/> <path d="M304.427,124.523c0.648,5.79,1.012,11.662,1.012,17.623c0,30.092-8.5,58.235-23.203,82.17H505.63v183.945 c-9.125-3.652-19.072-5.686-29.5-5.686c-43.852,0-79.398,35.549-79.398,79.398s35.547,79.398,79.398,79.398 c43.85,0,79.396-35.549,79.396-79.398c0-0.021-0.002-0.043-0.002-0.064h0.002V224.316v-99.793H505.63H304.427z"/> <path d="M147.993,284.293c18.633,0,36.411-3.623,52.718-10.142c19.003-7.595,35.971-19.167,49.896-33.697 c4.829-5.04,9.287-10.431,13.338-16.138c16.475-23.204,26.194-51.546,26.194-82.17c0-5.97-0.41-11.842-1.127-17.623 C280.329,54.339,220.527,0,147.993,0C69.489,0,5.847,63.642,5.847,142.146C5.847,220.65,69.485,284.293,147.993,284.293z M59.617,109.787h176.749v14.74v49.979H200.71H59.617V109.787z"/> </g> </g> </g>
</svg>